<?xml version="1.0" encoding="UTF-8"?><svg id="Layer_1" xmlns="http://www.w3.org/2000/svg" viewBox="0 0 431.7 242.8"><defs><style>.cls-1{fill:#f26522;}.cls-2{fill:#fff;}</style></defs><path class="cls-2" d="m185.7,98.6v-45.4h7.6v45.4s-7.6,0-7.6,0Z"/><path class="cls-2" d="m201,98.6v-45.4h4.8l34,30.4c1.6,1.5,3.4,3.4,5.2,5.7-.5-2.8-.7-6.5-.7-11.2v-24.9h7v45.4h-4.2l-34.9-31.6c-1.3-1.2-2-1.8-2.2-2-.9-.9-1.7-2-2.4-3.1.4,2.7.5,6,.5,9.9v26.8h-7.1Z"/><path class="cls-2" d="m298.9,59.4v39.3h-7.6v-39.3h-20.8v-6.2h49.2v6.2h-20.8Z"/><path class="cls-2" d="m327.2,98.6v-45.4h7.6v18.6h35.8v-18.6h7.6v45.4h-7.6v-20.6h-35.8v20.6s-7.6,0-7.6,0Z"/><path class="cls-2" d="m387.7,98.6v-45.4h43.7v6.1h-36.2v12.7h22.1v6h-22.1v14.4h36.5v6.2h-44Z"/><path class="cls-2" d="m185.7,199.1v-60.9h14.3v25.4l33.8-25.4h20.5l-40.4,28.7,45.3,32.2h-22.8l-36.5-26.8v26.8h-14.2Z"/><path class="cls-2" d="m274,199.1v-60.9h62.3v10.4h-48.2v13.6h28.1v10.4h-28.1v15.1h48.8v11.5h-62.9v-.1Z"/><path class="cls-2" d="m385.6,199.1v-27.3l-31.6-33.7h18.9l20.9,23.4,21-23.4h16.6l-31.5,33.4v27.6h-14.3Z"/><path class="cls-1" d="m173.8,199.1l-42.8,43.7H42.6L0,199.1v-56.7h71.8v35.5h29.5v-38.9h-22.2v-55.6h22.2v-21.9h-29.5v21.9H4.8v-44.1L42.6,0h88.4l42.8,44.1v54.6l-10.7,11.2,10.7,10.7v78.5h0Zm-21.5-7.7v-66.7l-16.2-16,16.2-16v-41l-29.9-30.6H51.4l-24.7,25.8v18.3h24v-10.6l12.1-10.5h46.6l13.2,13.2v33.1l-7.3,8.4h-17.7v21.9h17.6l7.3,8.4v57.6l-13.2,12.6h-46.6l-12.1-12.6v-25.2h-28.7v29.9l29.5,30.2h71.1l29.8-30.2Z"/></svg>