<?xml version="1.0" encoding="utf-8"?>
<!-- Generator: Adobe Illustrator 19.1.0, SVG Export Plug-In . SVG Version: 6.00 Build 0)  -->
<svg version="1.1" id="Layer_1" xmlns="http://www.w3.org/2000/svg" xmlns:xlink="http://www.w3.org/1999/xlink" x="0px" y="0px"
	 width="450px" height="306px" viewBox="0 0 450 306" style="enable-background:new 0 0 450 306;" xml:space="preserve">
<style type="text/css">
	.st0{fill:none;}
	.st1{fill:#C3996B;}
	.st2{fill:#B08053;}
	.st3{fill:url(#SVGID_1_);}
	.st4{fill:none;stroke:#231F20;stroke-width:3;stroke-miterlimit:10;}
	.st5{fill:#231F20;}
	.st6{opacity:0.2;fill:#FFFFFF;}
</style>
<pattern  x="225" y="153" width="92.5" height="69.7" patternUnits="userSpaceOnUse" id="New_Pattern" viewBox="92.5 -70 92.5 69.7" style="overflow:visible;">
	<g>
		<polygon class="st0" points="92.5,-70 185,-70 185,-0.3 92.5,-0.3 		"/>
		<g>
			<polygon class="st1" points="277.5,-3.6 183.6,-3.6 183.6,-7.1 277.5,-7.1 			"/>
			<polygon class="st2" points="277.5,-7.1 183.6,-7.1 183.6,-10.7 277.5,-10.7 			"/>
			<polygon class="st2" points="277.5,0 183,0 183,-3.6 277.5,-3.6 			"/>
		</g>
		<g>
			<polygon class="st1" points="185.9,-10.6 92.5,-10.6 92.5,-14.2 185.9,-14.2 			"/>
			<polygon class="st1" points="185,-3.6 91.1,-3.6 91.1,-7.1 185,-7.1 			"/>
			<polygon class="st2" points="185,-7.1 91.1,-7.1 91.1,-10.7 185,-10.7 			"/>
			<polygon class="st2" points="185,0 90.5,0 90.5,-3.6 185,-3.6 			"/>
		</g>
		<g>
			<polygon class="st1" points="93.4,-10.6 0,-10.6 0,-14.2 93.4,-14.2 			"/>
		</g>
		<g>
			<polygon class="st1" points="277.5,-17.5 183.6,-17.5 183.6,-21.1 277.5,-21.1 			"/>
			<polygon class="st2" points="277.5,-21.1 183.6,-21.1 183.6,-24.6 277.5,-24.6 			"/>
			<polygon class="st2" points="277.5,-13.9 183,-13.9 183,-17.5 277.5,-17.5 			"/>
		</g>
		<g>
			<polygon class="st1" points="185.9,-24.6 92.5,-24.6 92.5,-28.2 185.9,-28.2 			"/>
			<polygon class="st1" points="185,-17.5 91.1,-17.5 91.1,-21.1 185,-21.1 			"/>
			<polygon class="st2" points="185,-21.1 91.1,-21.1 91.1,-24.6 185,-24.6 			"/>
			<polygon class="st2" points="185,-13.9 90.5,-13.9 90.5,-17.5 185,-17.5 			"/>
		</g>
		<g>
			<polygon class="st1" points="93.4,-24.6 0,-24.6 0,-28.2 93.4,-28.2 			"/>
		</g>
		<g>
			<polygon class="st1" points="277.5,-31.5 183.6,-31.5 183.6,-35 277.5,-35 			"/>
			<polygon class="st2" points="277.5,-35 183.6,-35 183.6,-38.6 277.5,-38.6 			"/>
			<polygon class="st2" points="277.5,-27.9 183,-27.9 183,-31.5 277.5,-31.5 			"/>
		</g>
		<g>
			<polygon class="st1" points="185.9,-38.5 92.5,-38.5 92.5,-42.1 185.9,-42.1 			"/>
			<polygon class="st1" points="185,-31.5 91.1,-31.5 91.1,-35 185,-35 			"/>
			<polygon class="st2" points="185,-35 91.1,-35 91.1,-38.6 185,-38.6 			"/>
			<polygon class="st2" points="185,-27.9 90.5,-27.9 90.5,-31.5 185,-31.5 			"/>
		</g>
		<g>
			<polygon class="st1" points="93.4,-38.5 0,-38.5 0,-42.1 93.4,-42.1 			"/>
		</g>
		<g>
			<polygon class="st1" points="277.5,-45.4 183.6,-45.4 183.6,-49 277.5,-49 			"/>
			<polygon class="st2" points="277.5,-48.9 183.6,-48.9 183.6,-52.5 277.5,-52.5 			"/>
			<polygon class="st2" points="277.5,-41.8 183,-41.8 183,-45.4 277.5,-45.4 			"/>
		</g>
		<g>
			<polygon class="st1" points="185.9,-52.5 92.5,-52.5 92.5,-56.1 185.9,-56.1 			"/>
			<polygon class="st1" points="185,-45.4 91.1,-45.4 91.1,-49 185,-49 			"/>
			<polygon class="st2" points="185,-48.9 91.1,-48.9 91.1,-52.5 185,-52.5 			"/>
			<polygon class="st2" points="185,-41.8 90.5,-41.8 90.5,-45.4 185,-45.4 			"/>
		</g>
		<g>
			<polygon class="st1" points="93.4,-52.5 0,-52.5 0,-56.1 93.4,-56.1 			"/>
		</g>
		<g>
			<polygon class="st1" points="277.5,-59.4 183.6,-59.4 183.6,-62.9 277.5,-62.9 			"/>
			<polygon class="st2" points="277.5,-62.9 183.6,-62.9 183.6,-66.5 277.5,-66.5 			"/>
			<polygon class="st2" points="277.5,-55.8 183,-55.8 183,-59.4 277.5,-59.4 			"/>
		</g>
		<g>
			<polygon class="st1" points="185.9,-66.4 92.5,-66.4 92.5,-70 185.9,-70 			"/>
			<polygon class="st1" points="185,-59.4 91.1,-59.4 91.1,-62.9 185,-62.9 			"/>
			<polygon class="st2" points="185,-62.9 91.1,-62.9 91.1,-66.5 185,-66.5 			"/>
			<polygon class="st2" points="185,-55.8 90.5,-55.8 90.5,-59.4 185,-59.4 			"/>
		</g>
		<g>
			<polygon class="st1" points="93.4,-66.4 0,-66.4 0,-70 93.4,-70 			"/>
		</g>
		<g>
			<polygon class="st2" points="277.5,-69.7 183,-69.7 183,-73.3 277.5,-73.3 			"/>
		</g>
		<g>
			<polygon class="st2" points="185,-69.7 90.5,-69.7 90.5,-73.3 185,-73.3 			"/>
		</g>
	</g>
</pattern>
<pattern  id="SVGID_1_" xlink:href="#New_Pattern" patternTransform="matrix(2.0402 0 0 2.3008 8225.7939 10137.4717)">
</pattern>
<rect x="0" class="st3" width="450" height="306"/>
<line class="st4" x1="405" y1="100.9" x2="405" y2="208.8"/>
<line class="st4" x1="395.1" y1="153" x2="405" y2="153"/>
<g>
	<path class="st5" d="M380.2,140.6c6.8,0,12.4,5.6,12.4,12.4s-5.6,12.4-12.4,12.4s-12.4-5.6-12.4-12.4S373.4,140.6,380.2,140.6
		 M380.2,137.6c-8.5,0-15.4,6.9-15.4,15.4s6.9,15.4,15.4,15.4s15.4-6.9,15.4-15.4S388.8,137.6,380.2,137.6L380.2,137.6z"/>
</g>
<g>
	<path class="st5" d="M117.4,39.4c30.6,0,59.3,11.9,80.9,33.5c21.6,21.6,33.5,50.3,33.5,80.9s-11.9,59.3-33.5,80.9
		c-21.6,21.6-50.3,33.5-80.9,33.5s-59.3-11.9-80.9-33.5C14.9,213.1,3,184.4,3,153.9S14.9,94.6,36.5,73
		C58.1,51.3,86.8,39.4,117.4,39.4 M117.4,36.4C52.6,36.4,0,89,0,153.9s52.6,117.4,117.4,117.4s117.4-52.6,117.4-117.4
		S182.3,36.4,117.4,36.4L117.4,36.4z"/>
</g>
<g>
	<path class="st5" d="M447,274.3v28.3H118.8v-28.3H447 M450,271.3H115.8v34.3H450V271.3L450,271.3z"/>
</g>
<g>
	<path class="st5" d="M447,3.4v28.3H118.9V3.4H447 M450,0.4H115.9v34.3H450V0.4L450,0.4z"/>
</g>
<line class="st4" x1="117.4" y1="0.4" x2="117.4" y2="305.6"/>
<rect x="361.5" y="5.5" class="st5" width="6.6" height="24.2"/>
<rect x="280.4" y="5.5" class="st5" width="6.6" height="24.2"/>
<rect x="189.4" y="5.5" class="st5" width="6.6" height="24.2"/>
<rect x="361.5" y="276.3" class="st5" width="6.6" height="24.2"/>
<rect x="280.4" y="276.3" class="st5" width="6.6" height="24.2"/>
<rect x="189.4" y="276.3" class="st5" width="6.6" height="24.2"/>
<rect x="0" class="st6" width="450" height="305.6"/>
</svg>
