<?xml version="1.0" encoding="utf-8"?>
<!-- Generator: Adobe Illustrator 19.1.0, SVG Export Plug-In . SVG Version: 6.00 Build 0)  -->
<svg version="1.1" id="Layer_1" xmlns="http://www.w3.org/2000/svg" xmlns:xlink="http://www.w3.org/1999/xlink" x="0px" y="0px"
	 width="450px" height="306px" viewBox="0 0 450 306" style="enable-background:new 0 0 450 306;" xml:space="preserve">
<style type="text/css">
	.st0{fill:#B08053;}
	.st1{fill:#C3996B;}
	.st2{fill:none;stroke:#231F20;stroke-width:3;stroke-miterlimit:10;}
	.st3{fill:#231F20;}
	.st4{opacity:0.2;fill:#FFFFFF;}
</style>
<g>
	<rect class="st0" width="450" height="2.5"/>
	<rect y="2.5" class="st1" width="450" height="7.7"/>
	<rect y="10.2" class="st0" width="450" height="7.7"/>
	<rect y="17.9" class="st1" width="450" height="7.7"/>
	<rect y="25.5" class="st0" width="450" height="7.7"/>
	<rect y="33.2" class="st1" width="450" height="7.7"/>
	<rect y="40.8" class="st0" width="450" height="7.7"/>
	<rect y="48.5" class="st1" width="450" height="7.7"/>
	<rect y="56.1" class="st0" width="450" height="7.7"/>
	<rect y="63.8" class="st1" width="450" height="7.7"/>
	<rect y="71.4" class="st0" width="450" height="7.7"/>
	<rect y="79.1" class="st1" width="450" height="7.7"/>
	<rect y="86.7" class="st0" width="450" height="7.7"/>
	<rect y="94.4" class="st1" width="450" height="7.7"/>
	<rect y="102" class="st0" width="450" height="7.7"/>
	<rect y="109.7" class="st1" width="450" height="7.7"/>
	<rect y="117.3" class="st0" width="450" height="7.7"/>
	<rect y="125" class="st1" width="450" height="7.7"/>
	<rect y="132.6" class="st0" width="450" height="7.7"/>
	<rect y="140.3" class="st1" width="450" height="7.7"/>
	<rect y="148" class="st0" width="450" height="7.7"/>
	<rect y="155.6" class="st1" width="450" height="7.7"/>
	<rect y="163.3" class="st0" width="450" height="7.7"/>
	<rect y="170.9" class="st1" width="450" height="7.7"/>
	<rect y="178.6" class="st0" width="450" height="7.7"/>
	<rect y="186.2" class="st1" width="450" height="7.7"/>
	<rect y="193.9" class="st0" width="450" height="7.7"/>
	<rect y="201.5" class="st1" width="450" height="7.7"/>
	<rect y="209.2" class="st0" width="450" height="7.7"/>
	<rect y="216.8" class="st1" width="450" height="7.7"/>
	<rect y="224.5" class="st0" width="450" height="7.7"/>
	<rect y="232.1" class="st1" width="450" height="7.7"/>
	<rect y="239.8" class="st0" width="450" height="7.7"/>
	<rect y="247.4" class="st1" width="450" height="7.7"/>
	<rect y="255.1" class="st0" width="450" height="7.7"/>
	<rect y="262.8" class="st1" width="450" height="7.7"/>
	<rect y="270.4" class="st0" width="450" height="7.7"/>
	<rect y="278.1" class="st1" width="450" height="7.7"/>
	<rect y="285.7" class="st0" width="450" height="7.7"/>
	<rect y="293.4" class="st1" width="450" height="7.7"/>
	<rect y="301" class="st0" width="450" height="5"/>
</g>
<line class="st2" x1="405" y1="100.9" x2="405" y2="208.8"/>
<line class="st2" x1="395.1" y1="153" x2="405" y2="153"/>
<g>
	<path class="st3" d="M380.2,140.6c6.8,0,12.4,5.6,12.4,12.4s-5.6,12.4-12.4,12.4s-12.4-5.6-12.4-12.4S373.4,140.6,380.2,140.6
		 M380.2,137.6c-8.5,0-15.4,6.9-15.4,15.4s6.9,15.4,15.4,15.4s15.4-6.9,15.4-15.4S388.8,137.6,380.2,137.6L380.2,137.6z"/>
</g>
<g>
	<path class="st3" d="M117.4,39.4c30.6,0,59.3,11.9,80.9,33.5c21.6,21.6,33.5,50.3,33.5,80.9s-11.9,59.3-33.5,80.9
		c-21.6,21.6-50.3,33.5-80.9,33.5s-59.3-11.9-80.9-33.5C14.9,213.1,3,184.4,3,153.9S14.9,94.6,36.5,73
		C58.1,51.3,86.8,39.4,117.4,39.4 M117.4,36.4C52.6,36.4,0,89,0,153.9s52.6,117.4,117.4,117.4s117.4-52.6,117.4-117.4
		S182.3,36.4,117.4,36.4L117.4,36.4z"/>
</g>
<g>
	<path class="st3" d="M447,274.3v28.3H118.8v-28.3H447 M450,271.3H115.8v34.3H450V271.3L450,271.3z"/>
</g>
<g>
	<path class="st3" d="M447,3.4v28.3H118.9V3.4H447 M450,0.4H115.9v34.3H450V0.4L450,0.4z"/>
</g>
<line class="st2" x1="117.4" y1="0.4" x2="117.4" y2="305.6"/>
<rect x="361.5" y="5.5" class="st3" width="6.6" height="24.2"/>
<rect x="280.4" y="5.5" class="st3" width="6.6" height="24.2"/>
<rect x="189.4" y="5.5" class="st3" width="6.6" height="24.2"/>
<rect x="361.5" y="276.3" class="st3" width="6.6" height="24.2"/>
<rect x="280.4" y="276.3" class="st3" width="6.6" height="24.2"/>
<rect x="189.4" y="276.3" class="st3" width="6.6" height="24.2"/>
<rect x="0" class="st4" width="450" height="305.6"/>
</svg>
