<?xml version="1.0" encoding="utf-8"?>
<!-- Generator: Adobe Illustrator 19.1.0, SVG Export Plug-In . SVG Version: 6.00 Build 0)  -->
<svg version="1.1" id="Layer_1" xmlns="http://www.w3.org/2000/svg" xmlns:xlink="http://www.w3.org/1999/xlink" x="0px" y="0px"
	 width="432px" height="288px" viewBox="0 0 432 288" style="enable-background:new 0 0 432 288;" xml:space="preserve">
<style type="text/css">
	.st0{fill:#221F1F;stroke:#C2986B;stroke-miterlimit:10;}
	.st1{fill:#016938;}
	.st2{fill:#C2986B;}
</style>
<g>
	<path class="st0" d="M74.9,99.4H39.3v89.4h35.6l7.3-7.1v-74.3L74.9,99.4z M69.5,176.6H51.9v-65h17.6V176.6z M74.9,99.4H39.3v89.4
		h35.6l7.3-7.1v-74.3L74.9,99.4z M69.5,176.6H51.9v-65h17.6V176.6z M74.9,99.4H39.3v89.4h35.6l7.3-7.1v-74.3L74.9,99.4z M69.5,176.6
		H51.9v-65h17.6V176.6z"/>
	<path d="M432,118.9V74H260.2v37.6h7.3l-10.9,34.1l-11.6-34.1h7.2V74h-61.3v16.8L185.7,74h-39.4L113,176.6h-1.5V99.4L87.4,74H0v37.6
		h10v65H0V214h87.4l13-13.6V214h56.9v-35.3h-8.6l2.5-8h26.8l2.3,8h-9V214H230v-28.7l9.6,28.7h34.7l32.9-102.4h23v65h-9.7V214H432
		v-46.9h-42v9.4h-17.6v-15.7h33v-35.6h-33v-13.7H390v7.3H432z M99,184.6l-17.2,17.2H12.6v-13h10V99.4h-10V86.2h69.1L99,103.8V184.6z
		 M217.6,201.8h-33.8v-13h10.7l-8.8-27.3h-42.6l-9.3,27.3h11v13H113v-13h8L155,86.2h21.2l32.6,102.7h8.8V201.8z M217.6,176.6
		l-20.2-65h8l21.7,65H217.6z M310.6,99.4h-12.8l-32.9,102.4h-16.2L214.8,99.4h-11.3V86.2h36.1v13.2h-9.9l26.9,82.3l26.5-82.3h-10.2
		V86.2h37.7V99.4z M359.7,99.4v37.9h33.2v11.2h-33.2v40.3h42.9v-9.4h16.8v22.5H333v-13h9.9V99.4H333V86.2h86.3v20.7h-16.8v-7.5
		H359.7z"/>
	<g>
		<polygon class="st1" points="332,202.8 332,187.8 342,187.8 342,100.4 332,100.4 332,85.2 420.4,85.2 420.4,107.9 401.6,107.9 
			401.6,100.4 360.7,100.4 360.7,136.3 393.9,136.3 393.9,149.5 360.7,149.5 360.7,187.8 401.6,187.8 401.6,178.4 420.4,178.4 
			420.4,202.8 		"/>
		<path class="st2" d="M419.4,86.2v20.7h-16.8v-7.5h-42.9v37.9h33.2v11.2h-33.2v40.3h42.9v-9.4h16.8v22.5H333v-13h9.9V99.4H333V86.2
			H419.4 M421.4,84.2h-2H333h-2v2v13.2v2h2h7.9v85.4H333h-2v2v13v2h2h86.3h2v-2v-22.5v-2h-2h-16.8h-2v2v7.4h-38.9v-36.3h31.2h2v-2
			v-11.2v-2h-2h-31.2v-33.9h38.9v5.5v2h2h16.8h2v-2V86.2V84.2L421.4,84.2z"/>
	</g>
	<g>
		<polygon class="st1" points="247.9,202.8 214.1,100.4 202.5,100.4 202.5,85.2 240.6,85.2 240.6,100.4 231.1,100.4 256.6,178.5 
			281.7,100.4 271.8,100.4 271.8,85.2 311.6,85.2 311.6,100.4 298.5,100.4 265.6,202.8 		"/>
		<path class="st2" d="M310.6,86.2v13.2h-12.8l-32.9,102.4h-16.2L214.8,99.4h-11.3V86.2h36.1v13.2h-9.9l26.9,82.3l26.5-82.3h-10.2
			V86.2H310.6 M312.6,84.2h-2h-37.7h-2v2v13.2v2h2h7.5l-23.7,73.8l-24.1-73.8h7.1h2v-2V86.2v-2h-2h-36.1h-2v2v13.2v2h2h9.8
			l33.4,101.1l0.5,1.4h1.4h16.2h1.5l0.4-1.4l32.5-101.1h11.4h2v-2V86.2V84.2L312.6,84.2z"/>
	</g>
	<g>
		<path class="st1" d="M182.8,202.8v-15h10.3l-8.2-25.3h-41.1l-8.6,25.3h10.6v15H112v-15h8.3l33.9-102.7h22.7l32.6,102.7h9.1v15
			H182.8z M181,149.9l-15.6-49.5h-1.1l-16.4,49.5H181z"/>
		<path class="st2" d="M176.2,86.2l32.6,102.7h8.8v13h-33.8v-13h10.7l-8.8-27.3h-42.6l-9.3,27.3h11v13H113v-13h8L155,86.2H176.2
			 M146.6,150.9h35.8l-16.2-51.5h-2.6L146.6,150.9 M177.7,84.2h-1.5H155h-1.4l-0.5,1.4l-33.5,101.3H113h-2v2v13v2h2h31.7h2v-2v-13
			v-2h-2h-8.2l8-23.3h39.7l7.5,23.3h-7.9h-2v2v13v2h2h33.8h2v-2v-13v-2h-2h-7.4L178.1,85.6L177.7,84.2L177.7,84.2z M149.3,148.9
			l15.5-46.9l14.8,46.9H149.3L149.3,148.9z"/>
	</g>
	<g>
		<path class="st1" d="M11.6,202.8v-15h10v-87.4h-10V85.2h70.5l17.8,18.2V185l-17.8,17.8H11.6z M74.5,187.8l6.7-6.5v-73.5l-6.7-7.4
			H40.3v87.4H74.5z"/>
		<path class="st2" d="M81.7,86.2L99,103.8v80.8l-17.2,17.2H12.6v-13h10V99.4h-10V86.2H81.7 M39.3,188.8h35.6l7.3-7.1v-74.3l-7.3-8
			H39.3V188.8 M82.6,84.2h-0.8H12.6h-2v2v13.2v2h2h8v85.4h-8h-2v2v13v2h2h69.1h0.8l0.6-0.6l17.2-17.2l0.6-0.6v-0.8v-80.8V103
			l-0.6-0.6L83.2,84.8L82.6,84.2L82.6,84.2z M41.3,101.4H74l6.2,6.8v72.7l-6.1,5.9H41.3V101.4L41.3,101.4z"/>
	</g>
	<path class="st0" d="M166.1,99.4h-2.6l-17,51.5h35.8L166.1,99.4z M164.9,126.9l4.4,14.5H160L164.9,126.9z M166.1,99.4h-2.6
		l-17,51.5h35.8L166.1,99.4z M164.9,126.9l4.4,14.5H160L164.9,126.9z M166.1,99.4h-2.6l-17,51.5h35.8L166.1,99.4z M164.9,126.9
		l4.4,14.5H160L164.9,126.9z"/>
</g>
</svg>
