<?xml version="1.0" encoding="utf-8"?>
<!-- Generator: Adobe Illustrator 19.1.0, SVG Export Plug-In . SVG Version: 6.00 Build 0)  -->
<svg version="1.1" id="Layer_1" xmlns="http://www.w3.org/2000/svg" xmlns:xlink="http://www.w3.org/1999/xlink" x="0px" y="0px"
	 width="432px" height="288px" viewBox="0 0 432 288" style="enable-background:new 0 0 432 288;" xml:space="preserve">
<style type="text/css">
	.st0{fill:#282561;}
	.st1{fill:#FFDD0F;}
	.st2{fill:#221F1F;stroke:#FFDD0F;stroke-width:2;stroke-miterlimit:10;}
</style>
<g>
	<path d="M417.4,123.9H380v-10.5h15.3v6.6h36v-19.4l-18.9-19.4h-47.7l-20.7,20.8V136l15.7,16.5h35.6v16.5H380v-10h-36v10h-8.3
		l-27.4-88h-33.8l-28.5,88h-16.8v-55.7h8.4V81.1h-52.8v32.3h8.5v55.7h-6.7v-18.7h-35.9v18.7h-15.3v-55.7h11.2V81.1H0v32.3h8.4v55.7
		H0v32.1h284v-30.2h-7.4l2.1-6.9h22.9l1.9,6.9h-7.7v30.2h50.5v-18.4l18.4,18.4h46.6l20.8-20.8v-40.8L417.4,123.9z M84.8,190.7h-74
		v-11.2h8.5v-76.6h-8.5V91.6h74v17.8H70.4v-6.4H33.7v32.5h28.5v9.6H33.7v34.5h36.7v-8.1h14.4V190.7z M99.4,169.1h-3.8V161h-36v8.1
		H44.5v-13.5h28.3v-30.5H44.5v-11.8h15.1v6.2h36v-6.2h3.8V169.1z M175.7,190.7h-74v-11.2h8.5v-76.6h-8.5V91.6h34v11.3h-11.2v76.6
		h35.7v-18.9h15.5V190.7z M226.7,102.9h-8.4v76.6h8.4v11.2h-31.2v-11.2h8.5v-76.6h-8.5V91.6h31.2V102.9z M335.7,190.7h-29v-11.2h9.1
		l-7.6-23.4h-36.5l-8,23.4h9.4v11.2H246v-11.2h6.9l29.1-88h18.2l28,88h7.6V190.7z M420.5,175.4l-14.8,15.3h-36.6l-14.4-15.3V168
		h14.4v4.8l6.7,7.5h23.4l6.9-7.5v-25.7l-3.8-4.2h-37.4l-10.1-11.3v-25.3l14.4-14.8h36.7l14.6,14.8v4.5h-14.4V109l-6.9-6.1h-23.4
		l-6.7,6.1v20.4l4,4.1h36.7l10.6,10.6V175.4z"/>
	<g>
		<polygon class="st0" points="368.7,191.7 353.7,175.8 353.7,167 370.1,167 370.1,172.5 376.3,179.4 398.8,179.4 405.1,172.5 
			405.1,147.6 401.8,144 364.4,144 353.7,132 353.7,105.9 368.7,90.6 406.3,90.6 421.5,105.9 421.5,111.8 405.1,111.8 405.1,109.4 
			398.8,103.9 376.2,103.9 370.1,109.4 370.1,129 373.5,132.5 410.3,132.5 421.5,143.7 421.5,175.8 406.1,191.7 		"/>
		<path class="st1" d="M405.9,91.6l14.6,14.8v4.5h-14.4V109l-6.9-6.1h-23.4l-6.7,6.1v20.4l4,4.1h36.7l10.6,10.6v31.3l-14.8,15.3
			h-36.6l-14.4-15.3V168h14.4v4.8l6.7,7.5h23.4l6.9-7.5v-25.7l-3.8-4.2h-37.4l-10.1-11.3v-25.3l14.4-14.8H405.9 M406.7,89.6h-0.8
			h-36.7h-0.8l-0.6,0.6l-14.4,14.8l-0.6,0.6v0.8v25.3v0.8l0.5,0.6l10.1,11.3l0.6,0.7h0.9h36.6l2.7,3v24.1l-5.7,6.3h-21.6l-5.6-6.3
			V168v-2h-2h-14.4h-2v2v7.4v0.8l0.5,0.6l14.4,15.3l0.6,0.6h0.9h36.6h0.8l0.6-0.6l14.8-15.3l0.6-0.6v-0.8v-31.3v-0.8l-0.6-0.6
			l-10.6-10.6l-0.6-0.6h-0.8H374l-2.8-2.9v-18.7l5.5-4.9h21.9l5.6,5v0.9v2h2h14.4h2v-2v-4.5v-0.8l-0.6-0.6l-14.6-14.8L406.7,89.6
			L406.7,89.6z"/>
	</g>
	<g>
		<path class="st0" d="M305.6,191.7v-13.2h8.8l-6.9-21.4h-35l-7.3,21.4h9v13.2H245v-13.2h7.1l29.1-88h19.7l28,88h7.8v13.2H305.6z
			 M304,146l-13.3-42.1H290L276.1,146H304z"/>
		<path class="st1" d="M300.1,91.6l28,88h7.6v11.2h-29v-11.2h9.1l-7.6-23.4h-36.5l-8,23.4h9.4v11.2H246v-11.2h6.9l29.1-88H300.1
			 M274.7,147h30.7l-13.9-44.1h-2.2L274.7,147 M301.6,89.6h-1.5h-18.2h-1.4l-0.5,1.4l-28.6,86.6H246h-2v2v11.2v2h2h27.2h2v-2v-11.2
			v-2h-2h-6.6l6.6-19.4h33.6l6.3,19.4h-6.4h-2v2v11.2v2h2h29h2v-2v-11.2v-2h-2h-6.1L302,91L301.6,89.6L301.6,89.6z M277.5,145
			l12.9-39l12.3,39H277.5L277.5,145z"/>
	</g>
	<g>
		<polygon class="st0" points="194.5,191.7 194.5,178.6 203,178.6 203,103.9 194.5,103.9 194.5,90.6 227.7,90.6 227.7,103.9 
			219.4,103.9 219.4,178.6 227.7,178.6 227.7,191.7 		"/>
		<path class="st1" d="M226.7,91.6v11.3h-8.4v76.6h8.4v11.2h-31.2v-11.2h8.5v-76.6h-8.5V91.6H226.7 M228.7,89.6h-2h-31.2h-2v2v11.3
			v2h2h6.5v72.6h-6.5h-2v2v11.2v2h2h31.2h2v-2v-11.2v-2h-2h-6.4v-72.6h6.4h2v-2V91.6V89.6L228.7,89.6z"/>
	</g>
	<g>
		<polygon class="st0" points="100.7,191.7 100.7,178.6 109.2,178.6 109.2,103.9 100.7,103.9 100.7,90.6 136.7,90.6 136.7,103.9 
			125.6,103.9 125.6,178.6 159.3,178.6 159.3,159.7 176.7,159.7 176.7,191.7 		"/>
		<path class="st1" d="M135.7,91.6v11.3h-11.2v76.6h35.7v-18.9h15.5v30.1h-74v-11.2h8.5v-76.6h-8.5V91.6H135.7 M137.7,89.6h-2h-34
			h-2v2v11.3v2h2h6.5v72.6h-6.5h-2v2v11.2v2h2h74h2v-2v-30.1v-2h-2h-15.5h-2v2v16.9h-31.7v-72.6h9.2h2v-2V91.6V89.6L137.7,89.6z"/>
	</g>
	<g>
		<polygon class="st0" points="9.8,191.7 9.8,178.6 18.3,178.6 18.3,103.9 9.8,103.9 9.8,90.6 85.8,90.6 85.8,110.3 69.4,110.3 
			69.4,103.9 34.7,103.9 34.7,134.4 63.1,134.4 63.1,146 34.7,146 34.7,178.6 69.4,178.6 69.4,170.5 85.8,170.5 85.8,191.7 		"/>
		<path class="st1" d="M84.8,91.6v17.8H70.4v-6.4H33.7v32.5h28.5v9.6H33.7v34.5h36.7v-8.1h14.4v19.3h-74v-11.2h8.5v-76.6h-8.5V91.6
			H84.8 M86.8,89.6h-2h-74h-2v2v11.3v2h2h6.5v72.6h-6.5h-2v2v11.2v2h2h74h2v-2v-19.3v-2h-2H70.4h-2v2v6.1H35.7V147h26.5h2v-2v-9.6
			v-2h-2H35.7v-28.5h32.7v4.4v2h2h14.4h2v-2V91.6V89.6L86.8,89.6z"/>
	</g>
	<path class="st2" d="M291.5,102.9h-2.2L274.7,147h30.7L291.5,102.9z M290.5,126.5l3.8,12.4h-8L290.5,126.5z M291.5,102.9h-2.2
		L274.7,147h30.7L291.5,102.9z M290.5,126.5l3.8,12.4h-8L290.5,126.5z M291.5,102.9h-2.2L274.7,147h30.7L291.5,102.9z M290.5,126.5
		l3.8,12.4h-8L290.5,126.5z M291.5,102.9h-2.2L274.7,147h30.7L291.5,102.9z M290.5,126.5l3.8,12.4h-8L290.5,126.5z M291.5,102.9
		h-2.2L274.7,147h30.7L291.5,102.9z M290.5,126.5l3.8,12.4h-8L290.5,126.5z"/>
</g>
</svg>
