<?xml version="1.0" encoding="utf-8"?>
<!-- Generator: Adobe Illustrator 20.0.0, SVG Export Plug-In . SVG Version: 6.00 Build 0)  -->
<svg version="1.1" id="Layer_1" xmlns="http://www.w3.org/2000/svg" xmlns:xlink="http://www.w3.org/1999/xlink" x="0px" y="0px"
	 width="504px" height="504px" viewBox="0 0 504 504" style="enable-background:new 0 0 504 504;" xml:space="preserve">
<style type="text/css">
	.st0{fill:#FFFFFF;}
</style>
<path id="Facebook" class="st0" d="M196.4,129.2c0,10.6,0,57.8,0,57.8h-42.3v70.6h42.3v209.9h86.9V257.6h58.3c0,0,5.5-33.9,8.1-70.9
	c-7.6,0-66.1,0-66.1,0s0-41.1,0-48.3c0-7.2,9.5-16.9,18.8-16.9c9.4,0,29.1,0,47.4,0c0-9.6,0-42.9,0-73.5c-24.4,0-52.2,0-64.4,0
	C194.3,47.9,196.4,118.6,196.4,129.2z"/>
</svg>
