<?xml version="1.0" encoding="utf-8"?>
<!-- Generator: Adobe Illustrator 20.1.0, SVG Export Plug-In . SVG Version: 6.00 Build 0)  -->
<svg version="1.1" id="Layer_1" xmlns="http://www.w3.org/2000/svg" xmlns:xlink="http://www.w3.org/1999/xlink" x="0px" y="0px"
	 viewBox="0 0 432 288" style="enable-background:new 0 0 432 288;" xml:space="preserve">
<style type="text/css">
	.st0{fill:#BE0000;}
	.st1{fill:#FFFFFF;}
</style>
<g>
	<path d="M2.3,73.3v36.1h9.6v62.4H2.3v36h58.9v-36h-9.1v-12.5h29.6v-34.1H52.2v-15.9h16.9v8.5h40.4V73.3H2.3z M97.4,106.4H81.2v-8.7
		H40.1v39.3h30.1v10.8H40.1v35.8h9.2v12.5H14.5v-12.5h9.1V97.8h-9.1V85h82.9V106.4z"/>
	<g>
		<polygon class="st0" points="97.4,85 97.4,106.4 81.2,106.4 81.2,97.8 40.1,97.8 40.1,137.1 70.2,137.1 70.2,147.9 40.1,147.9 
			40.1,183.6 49.2,183.6 49.2,196.2 14.5,196.2 14.5,183.6 23.5,183.6 23.5,97.8 14.5,97.8 14.5,85 		"/>
		<path class="st1" d="M50.2,197.2H13.5v-14.5h9.1V98.8h-9.1V84h84.9v23.4H80.2v-8.7H41.1v37.3h30.1v12.8H41.1v33.8h9.2V197.2z
			 M15.5,195.2h32.8v-10.5h-9.2v-37.8h30.1v-8.8H39.1V96.8h43.2v8.7h14.1V86H15.5v10.7h9.1v87.9h-9.1V195.2z"/>
	</g>
	<path d="M164.4,73.3v33.9h5.2v64.7h-16.1v-64.7h5.4V73.3h-54.1v36.1h9.5v74.2l23.2,24.2h49.6l13.5-13.8l10.2-10.4v-74.2h10.5V73.3
		H164.4z M198.7,97.8v81.8l-16.4,16.6h-40.7l-16.3-16.6V97.8h-9.5V85H147v12.7h-5.6v78.9l7,7h26.5l7.4-7V97.8h-6.2V85h33.3v12.7
		H198.7z"/>
	<g>
		<polygon class="st0" points="209.4,85 209.4,97.8 198.7,97.8 198.7,179.6 182.3,196.2 141.6,196.2 125.3,179.6 125.3,97.8 
			115.8,97.8 115.8,85 147,85 147,97.8 141.4,97.8 141.4,176.7 148.4,183.6 174.9,183.6 182.3,176.7 182.3,97.8 176.1,97.8 
			176.1,85 		"/>
		<path class="st1" d="M182.7,197.2h-41.5L124.3,180V98.8h-9.5V84H148v14.7h-5.6v77.5l6.4,6.4h25.7l6.8-6.4V98.8h-6.2V84h35.3v14.7
			h-10.7V180L182.7,197.2z M142,195.2h39.8l15.8-16V96.8h10.7V86h-31.3v10.7h6.2v80.3l-8,7.6H148l-7.6-7.6V96.8h5.6V86h-29.2v10.7
			h9.5v82.4L142,195.2z"/>
	</g>
	<path d="M263.9,97.8h-2.5l-16.3,49.4h34.4L263.9,97.8z M262.7,124.2l4.2,13.9h-9L262.7,124.2z M263.9,97.8h-2.5l-16.3,49.4h34.4
		L263.9,97.8z M262.7,124.2l4.2,13.9h-9L262.7,124.2z M313.3,171.9l-30.7-98.6h-37.8l-32,98.6h-12.1v36h54.7V174h-8.3l2.4-7.7h25.7
		l2.2,7.7h-8.7v33.9h56.5v-36H313.3z M313.3,196.2h-32.5v-12.5h10.2l-8.5-26.2h-40.9l-9,26.2h10.5v12.5h-30.4v-12.5h7.7L253.1,85
		h20.4l31.3,98.6h8.5V196.2z M261.4,97.8l-16.3,49.4h34.4l-15.6-49.4H261.4z M258,138l4.7-13.9l4.2,13.9H258z"/>
	<g>
		<path class="st0" d="M304.8,183.6L273.5,85h-20.4l-32.6,98.6h-7.7v12.5h30.4v-12.5h-10.5l9-26.2h40.9l8.5,26.2h-10.2v12.5h32.5
			v-12.5H304.8z M245.1,147.2l16.3-49.4h2.5l15.6,49.4H245.1z"/>
		<path class="st1" d="M314.3,197.2h-34.5v-14.5h9.9l-7.8-24.2h-39.4l-8.3,24.2h10.1v14.5h-32.4v-14.5h8L252.4,84h21.8l31.3,98.6
			h8.7V197.2z M281.8,195.2h30.5v-10.5h-8.2L272.8,86h-18.9l-32.6,98.6h-7.4v10.5h28.4v-10.5h-10.9l9.6-28.2h42.3l9.1,28.2h-10.6
			V195.2z M280.8,148.2h-37.1l17-51.4h3.9L280.8,148.2z M246.5,146.2h31.6l-14.9-47.4h-1L246.5,146.2z"/>
	</g>
	<path d="M394.4,97.8h-34.2v85.9h34.2l7-6.8v-71.4L394.4,97.8z M389.3,171.9h-16.9v-62.4h16.9V171.9z M394.4,97.8h-34.2v85.9h34.2
		l7-6.8v-71.4L394.4,97.8z M389.3,171.9h-16.9v-62.4h16.9V171.9z M406.4,73.3h-83.9v36.1h9.6v62.4h-9.6v36h83.9l23.2-24.2V97.8
		L406.4,73.3z M417.5,179.6L401,196.2h-66.4v-12.5h9.5V97.8h-9.5V85H401l16.5,16.9V179.6z M360.2,97.8v85.9h34.2l7-6.8v-71.4l-7-7.7
		H360.2z M389.3,171.9h-16.9v-62.4h16.9V171.9z"/>
	<g>
		<path class="st0" d="M401,85h-66.4v12.7h9.5v85.9h-9.5v12.5H401l16.5-16.6V102L401,85z M401.4,176.8l-7,6.8h-34.2V97.8h34.2l7,7.7
			V176.8z"/>
		<path class="st1" d="M401.4,197.2h-67.8v-14.5h9.5V98.8h-9.5V84h67.8l17.1,17.5V180L401.4,197.2z M335.6,195.2h65l16-16v-76.8
			l-16-16.3h-65v10.7h9.5v87.9h-9.5V195.2z M394.8,184.6h-35.6V96.8h35.6l7.5,8.3v72.2L394.8,184.6z M361.2,182.6H394l6.4-6.2v-70.6
			l-6.4-7.1h-32.7V182.6z"/>
	</g>
</g>
</svg>
