<?xml version="1.0" encoding="utf-8"?>
<!-- Generator: Adobe Illustrator 20.0.0, SVG Export Plug-In . SVG Version: 6.00 Build 0)  -->
<svg version="1.1" id="Layer_1" xmlns="http://www.w3.org/2000/svg" xmlns:xlink="http://www.w3.org/1999/xlink" x="0px" y="0px"
	 width="504px" height="504px" viewBox="0 0 504 504" style="enable-background:new 0 0 504 504;" xml:space="preserve">
<style type="text/css">
	.st0{clip-path:url(#SVGID_2_);fill:#FFFFFF;}
</style>
<g>
	<defs>
		<rect id="SVGID_1_" x="42.2" y="47.9" width="419.6" height="419.6"/>
	</defs>
	<clipPath id="SVGID_2_">
		<use xlink:href="#SVGID_1_"  style="overflow:visible;"/>
	</clipPath>
	<path class="st0" d="M252,85.7c56,0,62.7,0.2,84.8,1.2c20.5,0.9,31.6,4.4,39,7.2c9.8,3.8,16.8,8.4,24.1,15.7
		c7.3,7.3,11.9,14.3,15.7,24.1c2.9,7.4,6.3,18.5,7.2,39c1,22.1,1.2,28.8,1.2,84.8c0,56-0.2,62.7-1.2,84.8c-0.9,20.5-4.4,31.6-7.2,39
		c-3.8,9.8-8.4,16.8-15.7,24.1c-7.3,7.3-14.3,11.9-24.1,15.7c-7.4,2.9-18.5,6.3-39,7.2c-22.1,1-28.8,1.2-84.8,1.2
		c-56,0-62.7-0.2-84.8-1.2c-20.5-0.9-31.6-4.4-39-7.2c-9.8-3.8-16.8-8.4-24.1-15.7c-7.3-7.3-11.9-14.3-15.7-24.1
		c-2.9-7.4-6.3-18.5-7.2-39c-1-22.1-1.2-28.8-1.2-84.8c0-56,0.2-62.7,1.2-84.8c0.9-20.5,4.4-31.6,7.2-39c3.8-9.8,8.4-16.8,15.7-24.1
		c7.3-7.3,14.3-11.9,24.1-15.7c7.4-2.9,18.5-6.3,39-7.2C189.3,85.9,196,85.7,252,85.7 M252,47.9c-57,0-64.1,0.2-86.5,1.3
		c-22.3,1-37.6,4.6-50.9,9.8c-13.8,5.4-25.5,12.5-37.2,24.2c-11.7,11.7-18.8,23.4-24.2,37.2c-5.2,13.3-8.7,28.6-9.8,50.9
		c-1,22.4-1.3,29.5-1.3,86.5c0,57,0.2,64.1,1.3,86.5c1,22.3,4.6,37.6,9.8,50.9c5.4,13.8,12.5,25.5,24.2,37.2
		c11.7,11.7,23.4,18.8,37.2,24.2c13.3,5.2,28.6,8.7,50.9,9.8c22.4,1,29.5,1.3,86.5,1.3c57,0,64.1-0.2,86.5-1.3
		c22.3-1,37.6-4.6,50.9-9.8c13.8-5.4,25.5-12.5,37.2-24.2c11.7-11.7,18.8-23.4,24.2-37.2c5.2-13.3,8.7-28.6,9.8-50.9
		c1-22.4,1.3-29.5,1.3-86.5c0-57-0.2-64.1-1.3-86.5c-1-22.3-4.6-37.6-9.8-50.9c-5.4-13.8-12.5-25.5-24.2-37.2
		c-11.7-11.7-23.4-18.8-37.2-24.2c-13.3-5.2-28.6-8.7-50.9-9.8C316.1,48.1,309,47.9,252,47.9"/>
	<path class="st0" d="M252,150c-59.5,0-107.7,48.2-107.7,107.7c0,59.5,48.2,107.7,107.7,107.7c59.5,0,107.7-48.2,107.7-107.7
		C359.7,198.2,311.5,150,252,150 M252,327.6c-38.6,0-69.9-31.3-69.9-69.9c0-38.6,31.3-69.9,69.9-69.9c38.6,0,69.9,31.3,69.9,69.9
		C321.9,296.3,290.6,327.6,252,327.6"/>
	<path class="st0" d="M389.2,145.7c0,13.9-11.3,25.2-25.2,25.2c-13.9,0-25.2-11.3-25.2-25.2c0-13.9,11.3-25.2,25.2-25.2
		C377.9,120.5,389.2,131.8,389.2,145.7"/>
</g>
</svg>
