<?xml version="1.0" encoding="utf-8"?>
<!-- Generator: Adobe Illustrator 20.0.0, SVG Export Plug-In . SVG Version: 6.00 Build 0)  -->
<svg version="1.1" id="Layer_1" xmlns="http://www.w3.org/2000/svg" xmlns:xlink="http://www.w3.org/1999/xlink" x="0px" y="0px"
	 width="504px" height="504px" viewBox="0 0 504 504" style="enable-background:new 0 0 504 504;" xml:space="preserve">
<path d="M419.6,370.1c2.7,35.7-24.1,68.2-59.9,72.6c-35.7,4.4-67-20.9-69.7-56.6c-2.7-35.6,24.1-68.2,59.9-72.6
	c11.3-1.4,22.1,0.2,31.8,4.1V142.4l-167.8,31.2v218.9h-0.3c0.1,0.6,0.2,1.2,0.2,1.8c2.7,35.7-24.1,68.2-59.8,72.6
	c-35.8,4.4-66.9-20.9-69.7-56.5c-2.8-35.7,24.1-68.2,59.8-72.6c11.3-1.4,22.1,0.2,31.8,4.1V89.6v0L419.5,48l0.2-0.1v0l0.1,0
	l-0.1,1.1v319.4h-0.3C419.5,369,419.6,369.5,419.6,370.1z"/>
</svg>
