<?xml version="1.0" encoding="utf-8"?>
<!-- Generator: Adobe Illustrator 19.1.0, SVG Export Plug-In . SVG Version: 6.00 Build 0)  -->
<svg version="1.1" id="Layer_1" xmlns="http://www.w3.org/2000/svg" xmlns:xlink="http://www.w3.org/1999/xlink" x="0px" y="0px"
	 width="432px" height="288px" viewBox="0 0 432 288" style="enable-background:new 0 0 432 288;" xml:space="preserve">
<style type="text/css">
	.st0{fill:#F26522;}
</style>
<g>
	<g>
		<path d="M185.8,121.2V75.8h7.6v45.4H185.8z"/>
		<path d="M201.1,121.2V75.8h4.8l34,30.4c1.6,1.5,3.4,3.4,5.2,5.7c-0.5-2.8-0.7-6.5-0.7-11.2V75.8h7v45.4h-4.2l-34.9-31.6
			c-1.3-1.2-2-1.8-2.2-2c-0.9-0.9-1.7-2-2.4-3.1c0.4,2.7,0.5,6,0.5,9.9v26.8H201.1z"/>
		<path d="M299,82v39.3h-7.6V82h-20.8v-6.2h49.2V82H299z"/>
		<path d="M327.3,121.2V75.8h7.6v18.6h35.8V75.8h7.6v45.4h-7.6v-20.6h-35.8v20.6H327.3z"/>
		<path d="M387.8,121.2V75.8h43.7v6.1h-36.2v12.7h22.1v6h-22.1V115h36.5v6.2H387.8z"/>
	</g>
	<g>
		<path d="M185.8,221.7v-60.9h14.3v25.4l33.8-25.4h20.5l-40.4,28.7l45.3,32.2h-22.8l-36.5-26.8v26.8H185.8z"/>
		<path d="M274.1,221.7v-60.9h62.3v10.4h-48.2v13.6h28.1v10.4h-28.1v15.1h48.8v11.5H274.1z"/>
		<path d="M385.7,221.7v-27.3l-31.6-33.7H373l20.9,23.4l21-23.4h16.6L400,194.1v27.6H385.7z"/>
	</g>
	<g>
		<path class="st0" d="M173.9,221.7l-42.8,43.7H42.7L0.1,221.7V165h71.8v35.5h29.5v-38.9H79.2V106h22.2V84.1H71.9V106h-67V61.9
			l37.8-39.3h88.4l42.8,44.1v54.6l-10.7,11.2l10.7,10.7V221.7z M152.4,214v-66.7l-16.2-16l16.2-16V74.3l-29.9-30.6H51.5L26.8,69.5
			v18.3h24V77.2l12.1-10.5h46.6l13.2,13.2v33.1l-7.3,8.4H97.7v21.9h17.6l7.3,8.4v57.6l-13.2,12.6H62.8l-12.1-12.6v-25.2H22V214
			l29.5,30.2h71.1L152.4,214z"/>
	</g>
</g>
</svg>
