<?xml version="1.0" encoding="utf-8"?>
<!-- Generator: Adobe Illustrator 20.0.0, SVG Export Plug-In . SVG Version: 6.00 Build 0)  -->
<svg version="1.1" id="Layer_1" xmlns="http://www.w3.org/2000/svg" xmlns:xlink="http://www.w3.org/1999/xlink" x="0px" y="0px"
	 width="504px" height="504px" viewBox="0 0 504 504" style="enable-background:new 0 0 504 504;" xml:space="preserve">
<path id="SoundCloud" d="M35.5,295.4c0,14.6,6.7,27.7,17.2,36.6v-73.1C42.2,267.7,35.5,280.8,35.5,295.4 M70.8,249.3v92.3
	c4.3,1.2,8.8,1.9,13.5,1.9H89v-95.8c-1.6-0.1-3.1-0.2-4.7-0.2C79.6,247.4,75.1,248.1,70.8,249.3 M110.9,255.3
	c-1.2-0.8-2.5-1.5-3.8-2.2v90.4h18.2V222.6C118.1,232,113,243.1,110.9,255.3 M143.4,205.6v137.8h18.2V196.6
	C155.1,198.8,149,201.9,143.4,205.6 M179.8,192.9v150.5h18.2v-150c-3.7-0.6-7.5-0.8-11.5-0.8C184.2,192.6,182,192.7,179.8,192.9
	 M226.1,203.5c-5.9-3.5-12.3-6.3-19.1-8.1v148.1h27.2V192.6C231.3,196,228.5,199.7,226.1,203.5 M243.3,183.5v160h172.5v-0.2
	c36.3-2.3,52.7-24.9,52.7-52.3c0-29-22-52.6-51.5-52.6c-7.6,0-13.8,1.6-20.4,4.4c-4.7-46.1-43.8-82.1-92-82.1
	C281,160.6,259.6,169.2,243.3,183.5"/>
</svg>
