<?xml version="1.0" encoding="utf-8"?>
<!-- Generator: Adobe Illustrator 20.0.0, SVG Export Plug-In . SVG Version: 6.00 Build 0)  -->
<svg version="1.1" id="Layer_1" xmlns="http://www.w3.org/2000/svg" xmlns:xlink="http://www.w3.org/1999/xlink" x="0px" y="0px"
	 width="504px" height="504px" viewBox="0 0 504 504" style="enable-background:new 0 0 504 504;" xml:space="preserve">
<g>
	<path d="M249.5,186.2c-38.2,0-69.2-31-69.2-69.2c0-18.5,7.2-35.8,20.2-48.9c13.1-13.1,30.4-20.3,48.9-20.3
		c38.1,0,69.2,31,69.2,69.2C318.6,155.2,287.6,186.2,249.5,186.2"/>
	<path d="M56.1,213.9c0-3.6,2.9-6.6,6.6-6.6h186.2c33.6,0,60.9,27.2,60.9,60.7v54.1c0,3.7-3,6.6-6.6,6.6c-0.1,0-0.3,0-0.4,0l-186,0
		c-33.4,0-60.7-27.2-60.7-60.7V213.9z"/>
	<path d="M387.9,206.5h53.3c3.6,0,6.6,3,6.6,6.6v54.1c0,33.5-27.2,60.7-60.7,60.7l-53.2,0c-3.8,0-6.7-2.9-6.7-6.6v-54.1
		C327.2,233.7,354.5,206.5,387.9,206.5"/>
	<path d="M303.2,346.1H195.8c-3.6,0-6.6,3-6.6,6.6v108.2c0,3.7,3,6.5,6.7,6.5l53.2,0c33.5,0,60.7-27.2,60.7-60.7v-54.1
		C309.8,349.1,306.9,346.1,303.2,346.1"/>
</g>
</svg>
