<?xml version="1.0" encoding="utf-8"?>
<!-- Generator: Adobe Illustrator 20.0.0, SVG Export Plug-In . SVG Version: 6.00 Build 0)  -->
<svg version="1.1" id="Layer_1" xmlns="http://www.w3.org/2000/svg" xmlns:xlink="http://www.w3.org/1999/xlink" x="0px" y="0px"
	 width="504px" height="504px" viewBox="0 0 504 504" style="enable-background:new 0 0 504 504;" xml:space="preserve">
<g>
	<path d="M468.5,117.7c-15.9,7.1-33.1,11.8-51,14c18.3-11,32.4-28.4,39.1-49.1c-17.2,10.2-36.2,17.6-56.4,21.6
		c-16.2-17.3-39.3-28.1-64.8-28.1c-49.1,0-88.8,39.8-88.8,88.8c0,7,0.8,13.7,2.3,20.2c-73.8-3.7-139.3-39.1-183.1-92.8
		c-7.6,13.1-12,28.4-12,44.7c0,30.8,15.7,58,39.5,73.9c-14.6-0.5-28.3-4.5-40.2-11.1c0,0.4,0,0.7,0,1.1c0,43,30.6,78.9,71.3,87.1
		c-7.5,2-15.3,3.1-23.4,3.1c-5.7,0-11.3-0.6-16.7-1.6c11.3,35.3,44.1,61,83,61.7c-30.4,23.8-68.7,38-110.3,38
		c-7.2,0-14.2-0.4-21.2-1.2c39.3,25.2,86,39.9,136.2,39.9c163.4,0,252.8-135.4,252.8-252.8c0-3.8-0.1-7.7-0.3-11.5
		C441.5,151.2,456.6,135.5,468.5,117.7L468.5,117.7z M468.5,117.7"/>
</g>
</svg>
