<?xml version="1.0" encoding="utf-8"?>
<!-- Generator: Adobe Illustrator 19.1.0, SVG Export Plug-In . SVG Version: 6.00 Build 0)  -->
<svg version="1.1" id="Layer_1" xmlns="http://www.w3.org/2000/svg" xmlns:xlink="http://www.w3.org/1999/xlink" x="0px" y="0px"
	 width="432px" height="288px" viewBox="0 0 432 288" style="enable-background:new 0 0 432 288;" xml:space="preserve">
<style type="text/css">
	.st0{fill:#1E75BB;}
	.st1{fill:#FFDD0F;}
</style>
<g>
	<path d="M392.7,154.1v20.5h-16.8v-61.1h12.2V78.2h-61v35.4h9.4v61.1h-7.3v-20.5h-39.3v20.5h-16.8v-61.1h12.2V78.2H112.6v35.4h7.3
		l-7.3,30.2L96.3,78.2h-23l-15.8,65.5l-8.1-30.2h8.1V78.2H0v35.4h13l23.7,96.2h36.5l11.4-47.1l11.7,47.1h36.3l23.9-96.2h19.4v61.1
		h-9.3v35.2H432v-55.7H392.7z M157.4,102.1h-9.6l-24.3,96.3h-20.8l-18-73l-18.3,73H45.6l-24.1-96.3h-9.6V89.7h33.7v12.4h-9.6
		L57.4,185l23.7-95.3h7.2l24.3,95.3l20.7-82.9h-8.9V89.7h32.9V102.1z M212.6,102.1h-9.2v84h9.2v12.2h-34.2v-12.2h9.3v-84h-9.3V89.7
		h34.2V102.1z M233.7,174.6h-18.4v-61.1h18.4V174.6z M317.3,198.3h-81.1v-12.2h9.4v-84h-9.4V89.7h37.3v12.4h-12.2v84h39.1v-20.7h17
		V198.3z M420.1,198.3H339v-12.2h9.3v-84H339V89.7h37.3v12.4h-12.2v84h39.1v-20.7h17V198.3z"/>
	<g>
		<polygon class="st0" points="338,199.3 338,185.1 347.4,185.1 347.4,103.1 338,103.1 338,88.7 377.3,88.7 377.3,103.1 
			365.1,103.1 365.1,185.1 402.2,185.1 402.2,164.4 421.1,164.4 421.1,199.3 		"/>
		<path class="st1" d="M376.3,89.7v12.4h-12.2v84h39.1v-20.7h17v33H339v-12.2h9.3v-84H339V89.7H376.3 M378.3,87.7h-2H339h-2v2v12.4
			v2h2h7.3v80H339h-2v2v12.2v2h2h81.1h2v-2v-33v-2h-2h-17h-2v2v18.7h-35.1v-80h10.2h2v-2V89.7V87.7L378.3,87.7z"/>
	</g>
	<g>
		<polygon class="st0" points="235.2,199.3 235.2,185.1 244.5,185.1 244.5,103.1 235.2,103.1 235.2,88.7 274.5,88.7 274.5,103.1 
			262.2,103.1 262.2,185.1 299.4,185.1 299.4,164.4 318.3,164.4 318.3,199.3 		"/>
		<path class="st1" d="M273.5,89.7v12.4h-12.2v84h39.1v-20.7h17v33h-81.1v-12.2h9.4v-84h-9.4V89.7H273.5 M275.5,87.7h-2h-37.3h-2v2
			v12.4v2h2h7.4v80h-7.4h-2v2v12.2v2h2h81.1h2v-2v-33v-2h-2h-17h-2v2v18.7h-35.1v-80h10.2h2v-2V89.7V87.7L275.5,87.7z"/>
	</g>
	<g>
		<polygon class="st0" points="177.4,199.3 177.4,185.1 186.7,185.1 186.7,103.1 177.4,103.1 177.4,88.7 213.6,88.7 213.6,103.1 
			204.4,103.1 204.4,185.1 213.6,185.1 213.6,199.3 		"/>
		<path class="st1" d="M212.6,89.7v12.4h-9.2v84h9.2v12.2h-34.2v-12.2h9.3v-84h-9.3V89.7H212.6 M214.6,87.7h-2h-34.2h-2v2v12.4v2h2
			h7.3v80h-7.3h-2v2v12.2v2h2h34.2h2v-2v-12.2v-2h-2h-7.2v-80h7.2h2v-2V89.7V87.7L214.6,87.7z"/>
	</g>
	<g>
		<polygon class="st0" points="101.9,199.3 84.7,129.4 67.1,199.3 44.8,199.3 20.7,103.1 10.9,103.1 10.9,88.7 46.6,88.7 
			46.6,103.1 37.2,103.1 57.4,180.9 80.4,88.7 89.1,88.7 112.6,180.9 132.1,103.1 123.5,103.1 123.5,88.7 158.4,88.7 158.4,103.1 
			148.6,103.1 124.2,199.3 		"/>
		<path class="st1" d="M157.4,89.7v12.4h-9.6l-24.3,96.3h-20.8l-18-73l-18.3,73H45.6l-24.1-96.3h-9.6V89.7h33.7v12.4h-9.6L57.4,185
			l23.7-95.3h7.2l24.3,95.3l20.7-82.9h-8.9V89.7H157.4 M159.4,87.7h-2h-32.9h-2v2v12.4v2h2h6.3l-18.2,72.7L90.3,89.2l-0.4-1.5h-1.6
			h-7.2h-1.6l-0.4,1.5l-21.8,87.7l-18.9-72.7h7h2v-2V89.7v-2h-2H11.9h-2v2v12.4v2h2h8l23.8,94.7l0.4,1.5h1.6h20.8h1.6l0.4-1.5
			l16.4-65.3l16.1,65.2l0.4,1.5h1.6h20.8h1.6l0.4-1.5l23.9-94.8h8.1h2v-2V89.7V87.7L159.4,87.7z"/>
	</g>
</g>
</svg>
